# xmcd
#
# Track frame offsets:
#	150
#	14000
#	31869
#	48792
#	66129
#	83235
#	103939
#	122696
#	141659
#	158288
#	178495
#	195701
#	209248
#
# Disc length: 3049 seconds
#
# Revision: 4
# Processed by: cddbd v1.5.1PL0 Copyright (c) Steve Scherf et al.
# Submitted via: EasyCDDAExtractor 7.1.2.1
#
DISCID=bf0be70d
DTITLE=Jamie O'Neal - Shiver
DYEAR=2000
DGENRE=Country
TTITLE0=When I Think About Angels
TTITLE1=There Is No Arizona
TTITLE2=Where We Belong
TTITLE3=No More Protecting My Heart
TTITLE4=She Hasn't Heard It Yet
TTITLE5=You Rescued Me
TTITLE6=Shiver
TTITLE7=The Only Thing Wrong
TTITLE8=I'm Still Waiting
TTITLE9=I'm Not Gonna Do Anything Without You (Duet With Mark Wills)
TTITLE10=Sanctuary
TTITLE11=Frantic
TTITLE12=To Be With You
EXTD=
EXTT0=
EXTT1=
EXTT2=
EXTT3=
EXTT4=
EXTT5=
EXTT6=
EXTT7=
EXTT8=
EXTT9=
EXTT10=
EXTT11=
EXTT12=
PLAYORDER=
